<svg xmlns="http://www.w3.org/2000/svg" width="1393.42" height="470" viewBox="0 0 1393.42 470">
  <g id="Group_771" data-name="Group 771" transform="translate(26.42)">
    <rect id="Rectangle_419" data-name="Rectangle 419" width="1364" height="470" transform="translate(3)" fill="#fbf5ff"/>
    <g id="Group_228" data-name="Group 228" transform="translate(215.58 526.5) rotate(180)" opacity="0.5">
      <circle id="Ellipse_21" data-name="Ellipse 21" cx="7" cy="7" r="7" transform="translate(149 123)" fill="#fbc9ce"/>
      <circle id="Ellipse_21-2" data-name="Ellipse 21" cx="7" cy="7" r="7" transform="translate(175 123)" fill="#fbc9ce"/>
      <circle id="Ellipse_21-3" data-name="Ellipse 21" cx="7" cy="7" r="7" transform="translate(203 123)" fill="#fbc9ce"/>
      <ellipse id="Ellipse_21-4" data-name="Ellipse 21" cx="6.5" cy="7" rx="6.5" ry="7" transform="translate(229 123)" fill="#fbc9ce"/>
      <ellipse id="Ellipse_21-5" data-name="Ellipse 21" cx="7" cy="6.5" rx="7" ry="6.5" transform="translate(149 151)" fill="#fbc9ce"/>
      <ellipse id="Ellipse_21-6" data-name="Ellipse 21" cx="7" cy="6.5" rx="7" ry="6.5" transform="translate(175 151)" fill="#fbc9ce"/>
      <ellipse id="Ellipse_21-7" data-name="Ellipse 21" cx="7" cy="6.5" rx="7" ry="6.5" transform="translate(203 151)" fill="#fbc9ce"/>
      <circle id="Ellipse_21-8" data-name="Ellipse 21" cx="6.5" cy="6.5" r="6.5" transform="translate(229 151)" fill="#fbc9ce"/>
      <ellipse id="Ellipse_21-9" data-name="Ellipse 21" cx="7" cy="6.5" rx="7" ry="6.5" transform="translate(149 177)" fill="#fbc9ce"/>
      <ellipse id="Ellipse_21-10" data-name="Ellipse 21" cx="7" cy="6.5" rx="7" ry="6.5" transform="translate(175 177)" fill="#fbc9ce"/>
      <ellipse id="Ellipse_21-11" data-name="Ellipse 21" cx="7" cy="6.5" rx="7" ry="6.5" transform="translate(203 177)" fill="#fbc9ce"/>
      <circle id="Ellipse_21-12" data-name="Ellipse 21" cx="6.5" cy="6.5" r="6.5" transform="translate(229 177)" fill="#fbc9ce"/>
      <circle id="Ellipse_21-13" data-name="Ellipse 21" cx="7" cy="7" r="7" transform="translate(149 204)" fill="#fbc9ce"/>
      <circle id="Ellipse_21-14" data-name="Ellipse 21" cx="7" cy="7" r="7" transform="translate(175 204)" fill="#fbc9ce"/>
      <circle id="Ellipse_21-15" data-name="Ellipse 21" cx="7" cy="7" r="7" transform="translate(203 204)" fill="#fbc9ce"/>
      <ellipse id="Ellipse_21-16" data-name="Ellipse 21" cx="6.5" cy="7" rx="6.5" ry="7" transform="translate(229 204)" fill="#fbc9ce"/>
      <circle id="Ellipse_21-17" data-name="Ellipse 21" cx="7" cy="7" r="7" transform="translate(149 230)" fill="#fbc9ce"/>
      <circle id="Ellipse_21-18" data-name="Ellipse 21" cx="7" cy="7" r="7" transform="translate(175 230)" fill="#fbc9ce"/>
      <circle id="Ellipse_21-19" data-name="Ellipse 21" cx="7" cy="7" r="7" transform="translate(203 230)" fill="#fbc9ce"/>
      <ellipse id="Ellipse_21-20" data-name="Ellipse 21" cx="6.5" cy="7" rx="6.5" ry="7" transform="translate(229 230)" fill="#fbc9ce"/>
      <circle id="Ellipse_21-21" data-name="Ellipse 21" cx="7" cy="7" r="7" transform="translate(149 258)" fill="#fbc9ce"/>
      <circle id="Ellipse_21-22" data-name="Ellipse 21" cx="7" cy="7" r="7" transform="translate(175 258)" fill="#fbc9ce"/>
      <circle id="Ellipse_21-23" data-name="Ellipse 21" cx="7" cy="7" r="7" transform="translate(203 258)" fill="#fbc9ce"/>
      <ellipse id="Ellipse_21-24" data-name="Ellipse 21" cx="6.5" cy="7" rx="6.5" ry="7" transform="translate(229 258)" fill="#fbc9ce"/>
      <ellipse id="Ellipse_21-25" data-name="Ellipse 21" cx="7" cy="6.5" rx="7" ry="6.5" transform="translate(149 284)" fill="#fbc9ce"/>
      <ellipse id="Ellipse_21-26" data-name="Ellipse 21" cx="7" cy="6.5" rx="7" ry="6.5" transform="translate(175 284)" fill="#fbc9ce"/>
      <ellipse id="Ellipse_21-27" data-name="Ellipse 21" cx="7" cy="6.5" rx="7" ry="6.5" transform="translate(203 284)" fill="#fbc9ce"/>
      <circle id="Ellipse_21-28" data-name="Ellipse 21" cx="6.5" cy="6.5" r="6.5" transform="translate(229 284)" fill="#fbc9ce"/>
    </g>
  </g>
</svg>
