<svg fill="#000000" xmlns="http://www.w3.org/2000/svg"  viewBox="0 0 50 50" width="100px" height="100px"><path d="M 9 4 C 6.2504839 4 4 6.2504839 4 9 L 4 41 C 4 43.749516 6.2504839 46 9 46 L 41 46 C 43.749516 46 46 43.749516 46 41 L 46 9 C 46 6.2504839 43.749516 4 41 4 L 9 4 z M 9 6 L 41 6 C 42.668484 6 44 7.3315161 44 9 L 44 41 C 44 41.196476 43.978663 41.386759 43.943359 41.572266 C 38.994538 37.046731 31.881358 34.318147 26.021484 34.029297 C 26.120478 31.144783 26.666667 28.114232 27.738281 25.335938 C 30.252407 26.462152 32.60058 25.941588 34.201172 25.087891 C 35.874787 24.19524 36.874189 22.975889 36.902344 22.941406 L 36.904297 22.9375 C 41.0837 18.129574 40.998047 11.087891 40.998047 11.087891 A 1.0001 1.0001 0 0 0 40.105469 10.091797 C 34.894231 9.5362733 28.500238 11.34856 25.34375 15.423828 C 24.104445 17.023972 23.854987 18.75226 24.076172 20.15625 A 1.0005565 1.0005565 0 0 0 26.052734 19.84375 C 25.899919 18.87374 26.013134 17.824293 26.923828 16.648438 C 29.237957 13.660721 34.487189 11.949981 38.869141 12.097656 C 38.796741 13.469976 38.438831 18.12702 35.392578 21.628906 A 1.0001 1.0001 0 0 0 35.373047 21.652344 C 35.373047 21.652344 34.57444 22.621062 33.259766 23.322266 C 32.013908 23.986764 30.448304 24.3887 28.53125 23.505859 C 29.896591 20.758933 31.854771 18.391328 34.5 16.865234 A 1.0001 1.0001 0 0 0 33.945312 14.994141 A 1.0001 1.0001 0 0 0 33.5 15.134766 C 28.4807 18.030515 25.767166 23.325981 24.640625 28.769531 C 23.504533 26.767223 21.552651 24.284381 18.355469 23.066406 A 1.0001 1.0001 0 0 0 17.964844 22.994141 A 1.0001 1.0001 0 0 0 17.644531 24.933594 C 19.098323 25.487419 20.263964 26.401336 21.181641 27.400391 C 21.116389 27.470384 20.894161 27.692212 20.333984 27.882812 C 19.679329 28.10556 18.686258 28.218067 17.134766 27.427734 C 15.711125 26.702124 14.616843 25.074915 13.933594 23.574219 C 13.454272 22.521431 13.386358 22.093034 13.263672 21.623047 C 14.140391 21.284954 15.899011 20.715943 18.291016 21.228516 C 20.388181 21.677587 21.212996 22.583419 21.644531 23.447266 A 1.0009902 1.0009902 0 1 0 23.435547 22.552734 C 22.755082 21.190581 21.281819 19.822413 18.708984 19.271484 C 17.738589 19.063543 16.806019 19.011641 15.953125 19.050781 C 13.394444 19.168201 11.552734 20.105469 11.552734 20.105469 A 1.0001 1.0001 0 0 0 11.021484 21.207031 C 11.021484 21.207031 11.334031 22.69079 12.113281 24.402344 C 12.892532 26.113898 14.140203 28.145595 16.226562 29.208984 A 1.0001 1.0001 0 0 0 16.226562 29.210938 C 18.18507 30.208604 19.850671 30.161096 20.978516 29.777344 C 21.665648 29.543545 22.098686 29.229236 22.392578 28.978516 C 23.541431 30.713189 24.039062 32.279297 24.039062 32.279297 A 1.0007041 1.0007041 0 0 0 24.109375 32.453125 C 24.065639 32.988319 24.037609 33.518982 24.021484 34.044922 C 15.571175 34.449385 8.2651923 39.852287 6.0703125 41.640625 C 6.0259879 41.433949 6 41.220781 6 41 L 6 9 C 6 7.3315161 7.3315161 6 9 6 z M 25.134766 36.003906 C 30.634307 36.047799 38.127873 38.825166 42.884766 43.324219 C 42.369889 43.741173 41.72093 44 41 44 L 9 44 C 8.2942367 44 7.6583434 43.750823 7.1484375 43.349609 C 9.0727371 41.797142 16.731502 36.06101 24.882812 36.005859 A 1.0001 1.0001 0 0 0 25.134766 36.003906 z"/></svg>